<?xml version="1.0" standalone="no"?>
<!DOCTYPE svg PUBLIC "-//W3C//DTD SVG 20010904//EN"
 "http://www.w3.org/TR/2001/REC-SVG-20010904/DTD/svg10.dtd">
<svg version="1.0" xmlns="http://www.w3.org/2000/svg"
 width="752.000000pt" height="752.000000pt" viewBox="0 0 752.000000 752.000000"
 preserveAspectRatio="xMidYMid meet">
<metadata>
Created by potrace 1.14, written by Peter Selinger 2001-2017
</metadata>
<g transform="translate(0.000000,752.000000) scale(0.100000,-0.100000)"
fill="#000000" stroke="none">
<path d="M3697 6884 c-4 -4 -29 -9 -55 -10 -63 -3 -161 -13 -272 -28 -57 -7
-235 -42 -235 -46 0 -1 -11 -3 -25 -5 -84 -11 -407 -118 -550 -182 -103 -46
-169 -79 -212 -104 -27 -16 -48 -27 -48 -24 0 9 -302 -184 -308 -197 -2 -5
-10 -8 -17 -8 -8 0 -18 -6 -22 -13 -4 -7 -19 -20 -33 -29 -14 -9 -34 -25 -45
-35 -11 -11 -28 -24 -36 -29 -49 -28 -314 -281 -409 -390 -214 -246 -380 -509
-523 -824 -39 -85 -120 -307 -132 -360 -2 -8 -4 -15 -5 -15 -1 0 -3 -7 -5 -15
-7 -27 -14 -55 -29 -107 -8 -29 -12 -53 -10 -53 3 0 1 -8 -4 -17 -9 -16 -43
-201 -57 -308 -11 -80 -18 -182 -19 -267 -1 -49 -3 -88 -6 -88 -3 0 -5 -25 -5
-55 0 -30 2 -55 5 -55 3 0 6 -37 6 -83 2 -87 10 -199 19 -257 3 -19 7 -53 10
-75 2 -22 7 -51 9 -65 3 -14 10 -47 16 -75 6 -27 12 -59 14 -70 20 -112 100
-371 158 -510 16 -38 30 -76 32 -83 1 -7 8 -18 14 -24 7 -7 12 -16 12 -20 0
-48 261 -492 348 -593 9 -11 28 -36 42 -55 14 -19 32 -42 40 -51 8 -9 31 -35
50 -59 111 -136 380 -386 515 -480 28 -19 55 -40 60 -46 6 -5 48 -35 95 -65
47 -30 87 -57 88 -61 2 -5 9 -8 16 -8 6 0 34 -15 61 -33 47 -30 317 -167 330
-167 3 0 25 -8 48 -19 81 -36 271 -101 387 -132 59 -16 46 -13 195 -44 129
-27 148 -30 235 -40 25 -3 63 -8 85 -10 22 -3 83 -7 136 -10 53 -2 100 -5 105
-6 5 -1 14 0 19 1 6 1 37 1 70 0 33 0 65 -1 70 -1 31 0 188 11 235 17 30 3 66
7 80 9 88 10 139 18 250 41 69 14 128 28 133 31 4 2 18 6 32 9 13 2 75 20 137
40 62 20 118 37 123 38 6 2 21 8 35 13 14 6 61 25 105 43 101 40 370 173 385
191 3 3 13 9 24 12 19 8 237 151 271 179 11 9 49 39 85 67 114 90 172 143 295
268 66 67 126 129 134 138 7 9 37 45 65 79 67 80 186 243 186 255 0 5 4 11 8
13 7 3 92 133 92 142 0 2 17 33 38 67 49 81 123 236 172 359 40 101 107 296
114 333 2 12 9 36 16 52 6 17 11 30 10 30 -1 0 1 16 5 35 3 19 8 44 10 55 2
11 4 20 5 20 2 0 6 19 20 108 7 40 14 81 16 91 4 20 12 87 20 165 2 24 6 86 9
138 2 51 7 98 10 103 3 6 2 10 -3 10 -5 0 -6 20 -2 45 4 25 4 45 1 45 -3 0 -6
37 -7 83 -1 105 -15 271 -28 347 -12 71 -33 183 -40 216 -17 82 -38 162 -46
176 -6 10 -10 26 -10 35 0 10 -16 63 -36 118 -19 55 -39 111 -44 125 -4 14
-15 41 -23 60 -27 66 -30 75 -29 82 1 3 -5 12 -13 18 -8 7 -15 16 -15 21 0 49
-260 492 -348 594 -9 11 -28 36 -42 55 -13 19 -29 40 -35 46 -5 7 -35 40 -65
75 -77 89 -261 272 -346 344 -96 80 -101 85 -159 125 -27 19 -54 40 -60 46
-11 11 -187 128 -195 129 -5 1 -45 25 -90 54 -26 18 -226 116 -295 146 -22 9
-49 21 -60 26 -88 38 -311 113 -435 144 -38 10 -279 57 -310 61 -19 2 -48 6
-65 9 -94 13 -266 26 -335 24 -165 -4 -200 -3 -203 4 -1 5 -6 5 -10 1z m338
-389 c154 -10 224 -19 375 -50 29 -5 150 -34 165 -39 6 -1 30 -8 55 -15 193
-54 441 -161 634 -273 68 -39 235 -151 273 -182 10 -8 45 -36 78 -63 33 -26
68 -55 79 -63 38 -31 243 -238 281 -285 22 -27 45 -53 51 -59 8 -9 98 -128
151 -202 9 -12 14 -19 87 -140 52 -85 151 -281 188 -369 29 -71 63 -170 60
-177 -1 -5 3 -8 10 -8 6 0 9 -3 5 -6 -3 -3 1 -25 9 -47 25 -71 66 -239 80
-327 3 -19 7 -42 10 -51 3 -9 7 -39 10 -65 3 -27 7 -62 10 -79 24 -199 21
-484 -10 -705 -17 -122 -17 -124 -45 -245 -48 -209 -113 -389 -216 -600 -79
-161 -187 -346 -206 -353 -5 -2 -9 -8 -9 -14 0 -8 -25 -45 -67 -98 -129 -163
-146 -182 -254 -290 -100 -99 -147 -142 -209 -190 -25 -19 -49 -40 -55 -46
-18 -19 -154 -114 -164 -114 -5 0 -11 -4 -13 -9 -7 -19 -385 -231 -412 -231
-3 0 -29 -11 -58 -24 -46 -21 -143 -59 -158 -62 -3 0 -12 -3 -20 -7 -107 -41
-367 -104 -500 -121 -25 -3 -61 -8 -80 -11 -107 -16 -388 -22 -530 -10 -198
15 -279 28 -440 67 -47 11 -89 21 -95 22 -52 12 -157 45 -210 66 -11 4 -36 14
-55 20 -71 26 -248 106 -335 153 -96 52 -109 60 -254 157 -94 62 -106 71 -140
100 -9 8 -37 31 -62 50 -89 69 -274 250 -339 330 -19 24 -42 50 -50 58 -12 13
-61 77 -157 208 -10 12 -16 23 -86 139 -123 204 -225 434 -287 650 -37 129
-44 159 -61 259 -5 33 -12 62 -14 65 -2 4 -6 31 -9 61 -4 30 -9 69 -11 85 -28
207 -21 548 17 760 6 39 12 77 13 85 1 8 4 29 8 45 4 17 9 39 11 50 10 51 50
196 73 264 55 165 172 433 195 447 4 3 6 9 3 14 -3 4 2 13 10 20 8 7 15 17 15
22 0 9 157 259 169 268 3 3 26 32 51 65 24 33 49 65 55 72 5 6 30 35 55 64 56
66 186 197 265 268 75 67 279 221 293 221 6 0 12 4 14 9 4 11 135 91 148 91 6
0 10 4 10 9 0 5 8 11 18 14 9 3 40 19 67 34 45 26 115 59 240 114 22 9 63 25
90 34 28 9 59 21 70 25 23 10 120 41 138 44 7 2 32 8 57 15 42 13 201 48 245
56 18 3 49 7 160 21 17 2 86 6 155 10 69 4 126 7 127 9 4 2 119 -2 228 -10z"/>
<path d="M2305 4430 c-129 -23 -198 -166 -134 -275 43 -73 88 -94 211 -100 85
-4 113 -7 174 -19 12 -2 37 -7 55 -10 129 -20 333 -110 478 -210 73 -50 227
-194 269 -251 12 -16 37 -50 56 -75 57 -75 161 -285 172 -349 3 -13 9 -32 14
-41 16 -29 42 -189 47 -285 6 -113 17 -156 50 -195 85 -101 240 -87 305 28 25
45 26 52 22 167 -4 105 -7 147 -14 165 -1 3 -2 9 -1 14 1 5 -4 32 -10 60 -7
28 -12 54 -11 58 1 4 -5 25 -13 47 -8 23 -14 42 -13 44 10 19 -142 376 -164
385 -4 2 -8 8 -8 13 0 13 -81 133 -92 137 -4 2 -8 10 -8 17 0 7 -3 15 -7 17
-5 2 -33 32 -63 68 -188 221 -422 384 -700 488 -14 5 -29 11 -35 12 -5 1 -26
8 -45 16 -32 12 -101 31 -140 38 -8 1 -31 5 -50 9 -65 13 -95 17 -165 22 -122
10 -149 10 -180 5z"/>
<path d="M5297 4434 c-1 -1 -38 -4 -82 -8 -111 -9 -131 -12 -220 -30 -222 -46
-508 -176 -668 -305 -112 -90 -247 -220 -247 -239 0 -4 9 -20 20 -37 11 -16
36 -61 56 -100 20 -38 45 -85 56 -102 11 -18 17 -33 13 -33 -3 0 0 -10 7 -22
7 -13 11 -26 10 -30 -1 -3 6 -12 14 -19 17 -14 15 -16 61 51 36 52 202 207
274 257 116 79 304 171 389 188 8 2 33 8 55 14 22 5 56 13 75 16 19 3 46 8 60
10 14 3 69 7 122 10 143 6 209 46 233 142 30 118 -51 226 -178 236 -26 2 -48
2 -50 1z"/>
</g>
</svg>
